<svg width="512" height="111" viewBox="0 0 512 111" fill="none" xmlns="http://www.w3.org/2000/svg">
<path d="M484.939 55.4889C496.07 46.1567 503.125 36.5166 499.686 30.5705C496.246 24.6244 484.365 25.9124 470.71 30.892C468.194 16.5759 463.38 5.63672 456.509 5.63672C449.639 5.63672 444.82 16.5737 442.303 30.8584C439.123 29.6875 435.878 28.7023 432.584 27.9078C422.375 25.4994 415.715 26.4191 413.322 30.5616C409.871 36.5322 416.938 46.168 428.078 55.5046C416.938 64.8409 409.871 74.4764 413.313 80.4384C414.835 83.0744 418.083 84.4047 422.873 84.4047C425.614 84.4047 428.859 83.9581 432.575 83.0922C435.869 82.2977 439.114 81.3125 442.294 80.1416C444.809 94.4465 449.621 105.363 456.5 105.363C463.379 105.363 468.189 94.4263 470.707 80.1416C473.887 81.3125 477.132 82.2977 480.425 83.0922C484.142 83.9693 487.387 84.4047 490.128 84.4047C494.918 84.4047 498.163 83.0655 499.688 80.4384C502.08 76.2934 499.545 70.0662 492.356 62.4303C490.02 59.9748 487.543 57.6571 484.939 55.4889ZM481.242 31.3985C489.278 29.5037 495.154 29.8744 496.592 32.363C498.029 34.8516 495.409 40.1304 489.753 46.1389C487.36 48.6519 484.816 51.0163 482.135 53.2189C479.155 50.871 475.91 48.5428 472.464 46.2818C472.225 42.2463 471.828 38.2666 471.281 34.4677C474.536 33.2423 477.862 32.2174 481.242 31.3987L481.242 31.3985ZM462.833 66.4751C460.718 67.6953 458.607 68.8514 456.498 69.9437C454.394 68.8529 452.283 67.6966 450.164 66.4749C448.045 65.2533 445.988 64.0034 443.992 62.7252C443.775 57.9148 443.775 53.097 443.992 48.2865C445.989 47.0097 448.046 45.7597 450.164 44.5366C452.281 43.3134 454.396 42.1564 456.509 41.0657C458.613 42.1564 460.725 43.3127 462.844 44.5344C464.963 45.756 467.018 47.0066 469.009 48.2863C469.226 53.0968 469.226 57.9147 469.009 62.7252C467.009 64.002 464.95 65.252 462.833 66.4751ZM468.741 67.1112C468.531 69.9101 468.245 72.6287 467.886 75.2381C465.449 74.2447 462.953 73.133 460.424 71.9167C461.822 71.1637 463.219 70.384 464.616 69.5775C466.013 68.771 467.388 67.9489 468.741 67.1112ZM452.572 71.9189C450.046 73.1353 447.55 74.2447 445.11 75.2402C444.751 72.6287 444.465 69.9124 444.256 67.1134C445.618 67.9571 446.993 68.7793 448.378 69.5799C449.763 70.3804 451.161 71.1564 452.572 71.9078V71.9189ZM440.336 60.3125C438.017 58.732 435.807 57.1251 433.725 55.5091C435.807 53.8931 438.017 52.2862 440.336 50.7058C440.287 52.3085 440.262 53.9096 440.26 55.5091C440.259 57.1088 440.284 58.7084 440.336 60.3079V60.3125ZM444.256 43.8981C444.465 41.0993 444.751 38.3806 445.11 35.7715C447.633 36.8025 450.123 37.9108 452.577 39.095C451.165 39.8538 449.765 40.6327 448.378 41.4318C446.991 42.2309 445.617 43.053 444.256 43.8981H444.256ZM460.424 39.0904C462.951 37.874 465.446 36.7646 467.886 35.7691C468.253 38.4672 468.539 41.1759 468.741 43.8914C467.391 43.0582 466.017 42.2398 464.618 41.4362C463.22 40.6326 461.822 39.8543 460.424 39.1015L460.424 39.0904ZM472.663 50.6969C474.982 52.2773 477.191 53.8842 479.274 55.5002C477.191 57.1162 474.981 58.7233 472.662 60.3036C472.712 58.701 472.737 57.0999 472.738 55.5002C472.74 53.9005 472.714 52.3009 472.662 50.7014L472.663 50.6969ZM447.989 22.0244C450.364 14.123 453.625 9.21257 456.5 9.21257C459.375 9.21257 462.634 14.123 465.011 22.0244C465.993 25.3612 466.77 28.755 467.337 32.1867C463.766 33.6109 460.127 35.2581 456.514 37.0681C452.831 35.2156 449.192 33.5684 445.668 32.1577C446.235 28.7359 447.01 25.3519 447.989 22.0246V22.0244ZM423.252 46.13C417.596 40.1215 414.976 34.8429 416.411 32.3541C417.846 29.8653 423.73 29.4972 431.761 31.39C435.141 32.2079 438.469 33.2321 441.725 34.4568C441.175 38.2512 440.778 42.2463 440.539 46.2864C437.16 48.5185 433.908 50.8486 430.888 53.2258C428.2 51.0187 425.65 48.649 423.252 46.13ZM431.763 79.6104C423.728 81.5054 417.851 81.1349 416.413 78.6463C414.976 76.1575 417.59 70.8854 423.252 64.8791C425.651 62.3601 428.202 59.9905 430.89 57.7835C433.91 60.1607 437.162 62.4976 440.542 64.7251C440.78 68.7652 441.178 72.7605 441.727 76.5549C438.468 77.7762 435.137 78.7966 431.754 79.6104H431.763ZM465.02 88.9847C462.645 96.8861 459.384 101.797 456.509 101.797C453.635 101.797 450.376 96.8861 447.999 88.9847C447.019 85.6567 446.244 82.2719 445.677 78.8492C449.197 77.4429 452.831 75.798 456.509 73.9388C460.188 75.7889 463.821 77.434 467.341 78.8492C466.771 82.2721 465.992 85.6569 465.009 88.9847H465.02ZM496.603 78.6483C495.166 81.1371 489.284 81.5074 481.253 79.6126C477.873 78.7947 474.545 77.7705 471.29 76.5458C471.839 72.7512 472.236 68.756 472.475 64.716C475.854 62.4839 479.106 60.1538 482.126 57.7744C484.811 59.9846 487.358 62.3572 489.753 64.8788C495.409 70.8852 498.025 76.164 496.592 78.6528L496.603 78.6483ZM451.492 55.8304C451.492 54.8495 451.783 53.8907 452.328 53.0751C452.873 52.2595 453.647 51.6238 454.553 51.2485C455.46 50.8731 456.457 50.7749 457.419 50.9662C458.381 51.1576 459.264 51.6299 459.958 52.3235C460.652 53.0171 461.124 53.9008 461.315 54.8629C461.507 55.8249 461.409 56.8221 461.033 57.7283C460.658 58.6345 460.022 59.4091 459.207 59.954C458.391 60.499 457.432 60.7898 456.451 60.7898C455.136 60.7898 453.874 60.2673 452.944 59.3373C452.014 58.4072 451.492 57.1457 451.492 55.8304Z" fill="#D62036"/>
<rect y="11" width="100" height="100" fill="#D62036"/>
<path d="M23.45 44.25V79H17.75V44.25H23.45ZM59.4836 79H53.7836L36.6336 53.05V79H30.9336V44.2H36.6336L53.7836 70.1V44.2H59.4836V79ZM78.3188 44.25C82.0188 44.25 85.2521 44.9667 88.0188 46.4C90.8188 47.8 92.9688 49.8333 94.4688 52.5C96.0021 55.1333 96.7688 58.2167 96.7688 61.75C96.7688 65.2833 96.0021 68.35 94.4688 70.95C92.9688 73.55 90.8188 75.55 88.0188 76.95C85.2521 78.3167 82.0188 79 78.3188 79H66.9688V44.25H78.3188ZM78.3188 74.35C82.3854 74.35 85.5021 73.25 87.6688 71.05C89.8354 68.85 90.9188 65.75 90.9188 61.75C90.9188 57.7167 89.8354 54.5667 87.6688 52.3C85.5021 50.0333 82.3854 48.9 78.3188 48.9H72.6688V74.35H78.3188Z" fill="white"/>
<path d="M118.268 79.35C115.035 79.35 112.051 78.6 109.318 77.1C106.618 75.5667 104.468 73.45 102.868 70.75C101.301 68.0167 100.518 64.95 100.518 61.55C100.518 58.15 101.301 55.1 102.868 52.4C104.468 49.7 106.618 47.6 109.318 46.1C112.051 44.5667 115.035 43.8 118.268 43.8C121.535 43.8 124.518 44.5667 127.218 46.1C129.951 47.6 132.101 49.7 133.668 52.4C135.235 55.1 136.018 58.15 136.018 61.55C136.018 64.95 135.235 68.0167 133.668 70.75C132.101 73.45 129.951 75.5667 127.218 77.1C124.518 78.6 121.535 79.35 118.268 79.35ZM118.268 74.4C120.568 74.4 122.618 73.8833 124.418 72.85C126.218 71.7833 127.618 70.2833 128.618 68.35C129.651 66.3833 130.168 64.1167 130.168 61.55C130.168 58.9833 129.651 56.7333 128.618 54.8C127.618 52.8667 126.218 51.3833 124.418 50.35C122.618 49.3167 120.568 48.8 118.268 48.8C115.968 48.8 113.918 49.3167 112.118 50.35C110.318 51.3833 108.901 52.8667 107.868 54.8C106.868 56.7333 106.368 58.9833 106.368 61.55C106.368 64.1167 106.868 66.3833 107.868 68.35C108.901 70.2833 110.318 71.7833 112.118 72.85C113.918 73.8833 115.968 74.4 118.268 74.4ZM139.727 61.55C139.727 58.15 140.51 55.1 142.077 52.4C143.677 49.7 145.827 47.6 148.527 46.1C151.26 44.5667 154.244 43.8 157.477 43.8C161.177 43.8 164.46 44.7167 167.327 46.55C170.227 48.35 172.327 50.9167 173.627 54.25H166.777C165.877 52.4167 164.627 51.05 163.027 50.15C161.427 49.25 159.577 48.8 157.477 48.8C155.177 48.8 153.127 49.3167 151.327 50.35C149.527 51.3833 148.11 52.8667 147.077 54.8C146.077 56.7333 145.577 58.9833 145.577 61.55C145.577 64.1167 146.077 66.3667 147.077 68.3C148.11 70.2333 149.527 71.7333 151.327 72.8C153.127 73.8333 155.177 74.35 157.477 74.35C159.577 74.35 161.427 73.9 163.027 73C164.627 72.1 165.877 70.7333 166.777 68.9H173.627C172.327 72.2333 170.227 74.8 167.327 76.6C164.46 78.4 161.177 79.3 157.477 79.3C154.21 79.3 151.227 78.55 148.527 77.05C145.827 75.5167 143.677 73.4 142.077 70.7C140.51 68 139.727 64.95 139.727 61.55ZM196.149 79.35C192.915 79.35 189.932 78.6 187.199 77.1C184.499 75.5667 182.349 73.45 180.749 70.75C179.182 68.0167 178.399 64.95 178.399 61.55C178.399 58.15 179.182 55.1 180.749 52.4C182.349 49.7 184.499 47.6 187.199 46.1C189.932 44.5667 192.915 43.8 196.149 43.8C199.415 43.8 202.399 44.5667 205.099 46.1C207.832 47.6 209.982 49.7 211.549 52.4C213.115 55.1 213.899 58.15 213.899 61.55C213.899 64.95 213.115 68.0167 211.549 70.75C209.982 73.45 207.832 75.5667 205.099 77.1C202.399 78.6 199.415 79.35 196.149 79.35ZM196.149 74.4C198.449 74.4 200.499 73.8833 202.299 72.85C204.099 71.7833 205.499 70.2833 206.499 68.35C207.532 66.3833 208.049 64.1167 208.049 61.55C208.049 58.9833 207.532 56.7333 206.499 54.8C205.499 52.8667 204.099 51.3833 202.299 50.35C200.499 49.3167 198.449 48.8 196.149 48.8C193.849 48.8 191.799 49.3167 189.999 50.35C188.199 51.3833 186.782 52.8667 185.749 54.8C184.749 56.7333 184.249 58.9833 184.249 61.55C184.249 64.1167 184.749 66.3833 185.749 68.35C186.782 70.2833 188.199 71.7833 189.999 72.85C191.799 73.8833 193.849 74.4 196.149 74.4ZM230.858 44.25C234.558 44.25 237.791 44.9667 240.558 46.4C243.358 47.8 245.508 49.8333 247.008 52.5C248.541 55.1333 249.308 58.2167 249.308 61.75C249.308 65.2833 248.541 68.35 247.008 70.95C245.508 73.55 243.358 75.55 240.558 76.95C237.791 78.3167 234.558 79 230.858 79H219.508V44.25H230.858ZM230.858 74.35C234.924 74.35 238.041 73.25 240.208 71.05C242.374 68.85 243.458 65.75 243.458 61.75C243.458 57.7167 242.374 54.5667 240.208 52.3C238.041 50.0333 234.924 48.9 230.858 48.9H225.208V74.35H230.858ZM260.657 48.85V59.05H272.657V63.7H260.657V74.35H274.157V79H254.957V44.2H274.157V48.85H260.657ZM299.778 61.15C301.644 61.4833 303.228 62.4667 304.528 64.1C305.828 65.7333 306.478 67.5833 306.478 69.65C306.478 71.4167 306.011 73.0167 305.078 74.45C304.178 75.85 302.861 76.9667 301.128 77.8C299.394 78.6 297.378 79 295.078 79H281.178V44.25H294.428C296.794 44.25 298.828 44.65 300.528 45.45C302.228 46.25 303.511 47.3333 304.378 48.7C305.244 50.0333 305.678 51.5333 305.678 53.2C305.678 55.2 305.144 56.8667 304.078 58.2C303.011 59.5333 301.578 60.5167 299.778 61.15ZM286.878 58.85H293.928C295.794 58.85 297.244 58.4333 298.278 57.6C299.344 56.7333 299.878 55.5 299.878 53.9C299.878 52.3333 299.344 51.1167 298.278 50.25C297.244 49.35 295.794 48.9 293.928 48.9H286.878V58.85ZM294.578 74.35C296.511 74.35 298.028 73.8833 299.128 72.95C300.228 72.0167 300.778 70.7167 300.778 69.05C300.778 67.35 300.194 66 299.028 65C297.861 64 296.311 63.5 294.378 63.5H286.878V74.35H294.578ZM333.622 71.9H319.072L316.572 79H310.622L323.072 44.2H329.672L342.122 79H336.122L333.622 71.9ZM332.022 67.25L326.372 51.1L320.672 67.25H332.022ZM358.985 79.35C356.652 79.35 354.552 78.95 352.685 78.15C350.818 77.3167 349.352 76.15 348.285 74.65C347.218 73.15 346.685 71.4 346.685 69.4H352.785C352.918 70.9 353.502 72.1333 354.535 73.1C355.602 74.0667 357.085 74.55 358.985 74.55C360.952 74.55 362.485 74.0833 363.585 73.15C364.685 72.1833 365.235 70.95 365.235 69.45C365.235 68.2833 364.885 67.3333 364.185 66.6C363.518 65.8667 362.668 65.3 361.635 64.9C360.635 64.5 359.235 64.0667 357.435 63.6C355.168 63 353.318 62.4 351.885 61.8C350.485 61.1667 349.285 60.2 348.285 58.9C347.285 57.6 346.785 55.8667 346.785 53.7C346.785 51.7 347.285 49.95 348.285 48.45C349.285 46.95 350.685 45.8 352.485 45C354.285 44.2 356.368 43.8 358.735 43.8C362.102 43.8 364.852 44.65 366.985 46.35C369.152 48.0167 370.352 50.3167 370.585 53.25H364.285C364.185 51.9833 363.585 50.9 362.485 50C361.385 49.1 359.935 48.65 358.135 48.65C356.502 48.65 355.168 49.0667 354.135 49.9C353.102 50.7333 352.585 51.9333 352.585 53.5C352.585 54.5667 352.902 55.45 353.535 56.15C354.202 56.8167 355.035 57.35 356.035 57.75C357.035 58.15 358.402 58.5833 360.135 59.05C362.435 59.6833 364.302 60.3167 365.735 60.95C367.202 61.5833 368.435 62.5667 369.435 63.9C370.468 65.2 370.985 66.95 370.985 69.15C370.985 70.9167 370.502 72.5833 369.535 74.15C368.602 75.7167 367.218 76.9833 365.385 77.95C363.585 78.8833 361.452 79.35 358.985 79.35ZM383.411 48.85V59.05H395.411V63.7H383.411V74.35H396.911V79H377.711V44.2H396.911V48.85H383.411Z" fill="black"/>
<circle cx="19.6533" cy="29.6533" r="7.88187" transform="rotate(-15 19.6533 29.6533)" fill="white"/>
</svg>
